<svg viewBox="0 0 200 200" xmlns="http://www.w3.org/2000/svg">
  <defs>
    <linearGradient id="boyBg" x1="0" y1="0" x2="0" y2="1">
      <stop offset="0" stop-color="#42D6F2"/>
      <stop offset="1" stop-color="#10A6CE"/>
    </linearGradient>
    <radialGradient id="boyVig" cx="0.5" cy="0.4" r="0.78">
      <stop offset="0.55" stop-color="#ffffff" stop-opacity="0"/>
      <stop offset="1" stop-color="#0A5C77" stop-opacity="0.5"/>
    </radialGradient>
  </defs>
  <rect x="2" y="2" width="196" height="196" rx="32" fill="url(#boyBg)"/>
  <rect x="2" y="2" width="196" height="196" rx="32" fill="url(#boyVig)"/>
  <g stroke="#10233F" stroke-width="5" stroke-linejoin="round">
    <!-- shoulders -->
    <path d="M50 200 Q54 156 100 156 Q146 156 150 200 Z" fill="#25D989"/>
    <!-- ears -->
    <circle cx="58" cy="104" r="11" fill="#FFD9B5"/>
    <circle cx="142" cy="104" r="11" fill="#FFD9B5"/>
    <!-- face -->
    <path d="M60 96 Q60 56 100 56 Q140 56 140 96 Q140 130 100 138 Q60 130 60 96 Z" fill="#FFD9B5"/>
    <!-- hair -->
    <path d="M59 92 Q56 52 100 52 Q144 52 141 92 Q134 78 122 80 Q120 66 108 72 Q104 60 96 70 Q88 60 80 74 Q70 76 59 92 Z" fill="#3A2A1A"/>
  </g>
  <!-- freckles -->
  <g fill="#D98A52">
    <circle cx="74" cy="116" r="2"/>
    <circle cx="80" cy="120" r="2"/>
    <circle cx="126" cy="116" r="2"/>
    <circle cx="120" cy="120" r="2"/>
  </g>
  <!-- eyebrows -->
  <path d="M72 86 Q82 82 92 86" fill="none" stroke="#10233F" stroke-width="4.5" stroke-linecap="round"/>
  <path d="M108 86 Q118 82 128 86" fill="none" stroke="#10233F" stroke-width="4.5" stroke-linecap="round"/>
  <!-- eyes -->
  <g stroke="#10233F" stroke-width="4.5">
    <ellipse cx="82" cy="100" rx="10.5" ry="13" fill="#ffffff"/>
    <ellipse cx="118" cy="100" rx="10.5" ry="13" fill="#ffffff"/>
  </g>
  <circle cx="84" cy="102" r="6" fill="#2A4A6A"/>
  <circle cx="116" cy="102" r="6" fill="#2A4A6A"/>
  <circle cx="86.2" cy="99" r="2.2" fill="#ffffff"/>
  <circle cx="118.2" cy="99" r="2.2" fill="#ffffff"/>
  <!-- big grin -->
  <path d="M80 118 Q100 136 120 118 Q100 126 80 118 Z" fill="#10233F"/>
  <path d="M86 121 Q100 127 114 121 L112 124 Q100 129 88 124 Z" fill="#ffffff"/>
</svg>
